<mxfile host="app.diagrams.net" agent="Mozilla/5.0 (Windows NT 10.0; Win64; x64) AppleWebKit/537.36 (KHTML, like Gecko) Chrome/134.0.0.0 Safari/537.36" version="26.1.3">
  <diagram name="PÃ¡gina-1" id="jEZWq8zYfxT47PT_qw9F">
    <mxGraphModel dx="774" dy="365" grid="1" gridSize="10" guides="1" tooltips="1" connect="1" arrows="1" fold="1" page="1" pageScale="1" pageWidth="850" pageHeight="1100" math="0" shadow="0">
      <root>
        <mxCell id="0" />
        <mxCell id="1" parent="0" />
        <mxCell id="osEmRyzHWU5hv7L7ng7F-2" value="" style="rounded=0;whiteSpace=wrap;html=1;" parent="1" vertex="1">
          <mxGeometry x="90" y="70" width="340" height="480" as="geometry" />
        </mxCell>
        <mxCell id="osEmRyzHWU5hv7L7ng7F-3" value="&lt;font style=&quot;font-size: 9px;&quot;&gt;Usuario&lt;/font&gt;" style="shape=umlActor;verticalLabelPosition=bottom;verticalAlign=top;html=1;outlineConnect=0;" parent="1" vertex="1">
          <mxGeometry x="100" y="160" width="20" height="40" as="geometry" />
        </mxCell>
        <mxCell id="osEmRyzHWU5hv7L7ng7F-4" value="" style="rounded=0;whiteSpace=wrap;html=1;" parent="1" vertex="1">
          <mxGeometry x="130" y="100" width="270" height="420" as="geometry" />
        </mxCell>
        <mxCell id="osEmRyzHWU5hv7L7ng7F-7" value="&lt;font style=&quot;font-size: 9px;&quot;&gt;Buscar Cliente&lt;/font&gt;" style="ellipse;whiteSpace=wrap;html=1;" parent="1" vertex="1">
          <mxGeometry x="175" y="170" width="80" height="40" as="geometry" />
        </mxCell>
        <mxCell id="osEmRyzHWU5hv7L7ng7F-9" value="&lt;font style=&quot;font-size: 9px;&quot;&gt;Registrar Cliente&amp;nbsp;&lt;/font&gt;&lt;div&gt;&lt;font style=&quot;font-size: 9px;&quot;&gt;(Solo si no existe)&lt;/font&gt;&lt;/div&gt;" style="ellipse;whiteSpace=wrap;html=1;" parent="1" vertex="1">
          <mxGeometry x="280" y="120" width="110" height="50" as="geometry" />
        </mxCell>
        <mxCell id="osEmRyzHWU5hv7L7ng7F-10" value="&lt;font style=&quot;font-size: 9px;&quot;&gt;Ingresa y valida Datos de Mascota&lt;/font&gt;" style="ellipse;whiteSpace=wrap;html=1;" parent="1" vertex="1">
          <mxGeometry x="260" y="260" width="100" height="50" as="geometry" />
        </mxCell>
        <mxCell id="osEmRyzHWU5hv7L7ng7F-11" value="&lt;font style=&quot;font-size: 9px;&quot;&gt;Registrar Mascota&lt;/font&gt;" style="ellipse;whiteSpace=wrap;html=1;" parent="1" vertex="1">
          <mxGeometry x="195" y="350" width="85" height="40" as="geometry" />
        </mxCell>
        <mxCell id="osEmRyzHWU5hv7L7ng7F-12" value="&lt;font style=&quot;font-size: 9px;&quot;&gt;Notificar Registro Exitoso&lt;/font&gt;" style="ellipse;whiteSpace=wrap;html=1;" parent="1" vertex="1">
          <mxGeometry x="172.5" y="450" width="130" height="50" as="geometry" />
        </mxCell>
        <mxCell id="osEmRyzHWU5hv7L7ng7F-13" value="" style="endArrow=none;html=1;rounded=0;exitX=0.5;exitY=0.5;exitDx=0;exitDy=0;exitPerimeter=0;entryX=0;entryY=0.5;entryDx=0;entryDy=0;" parent="1" source="osEmRyzHWU5hv7L7ng7F-3" target="osEmRyzHWU5hv7L7ng7F-9" edge="1">
          <mxGeometry width="50" height="50" relative="1" as="geometry">
            <mxPoint x="150" y="320" as="sourcePoint" />
            <mxPoint x="200" y="270" as="targetPoint" />
          </mxGeometry>
        </mxCell>
        <mxCell id="osEmRyzHWU5hv7L7ng7F-14" value="" style="endArrow=none;html=1;rounded=0;exitX=0.5;exitY=0.5;exitDx=0;exitDy=0;exitPerimeter=0;entryX=0;entryY=0.5;entryDx=0;entryDy=0;" parent="1" source="osEmRyzHWU5hv7L7ng7F-3" target="osEmRyzHWU5hv7L7ng7F-7" edge="1">
          <mxGeometry width="50" height="50" relative="1" as="geometry">
            <mxPoint x="160" y="300" as="sourcePoint" />
            <mxPoint x="210" y="250" as="targetPoint" />
          </mxGeometry>
        </mxCell>
        <mxCell id="osEmRyzHWU5hv7L7ng7F-15" value="&lt;font style=&quot;font-size: 8px;&quot;&gt;&amp;lt;&amp;lt;Include&amp;gt;&amp;gt;&lt;/font&gt;" style="html=1;verticalAlign=bottom;endArrow=open;dashed=1;endSize=8;curved=0;rounded=0;entryX=0.5;entryY=0;entryDx=0;entryDy=0;exitX=0.5;exitY=1;exitDx=0;exitDy=0;" parent="1" source="osEmRyzHWU5hv7L7ng7F-9" target="osEmRyzHWU5hv7L7ng7F-10" edge="1">
          <mxGeometry relative="1" as="geometry">
            <mxPoint x="390" y="220" as="sourcePoint" />
            <mxPoint x="310" y="220" as="targetPoint" />
          </mxGeometry>
        </mxCell>
        <mxCell id="osEmRyzHWU5hv7L7ng7F-16" value="&lt;font style=&quot;font-size: 8px;&quot;&gt;&amp;lt;&amp;lt;Include&amp;gt;&amp;gt;&lt;/font&gt;" style="html=1;verticalAlign=bottom;endArrow=open;dashed=1;endSize=8;curved=0;rounded=0;entryX=0.5;entryY=0;entryDx=0;entryDy=0;" parent="1" source="osEmRyzHWU5hv7L7ng7F-7" target="osEmRyzHWU5hv7L7ng7F-10" edge="1">
          <mxGeometry relative="1" as="geometry">
            <mxPoint x="340" y="180" as="sourcePoint" />
            <mxPoint x="305" y="270" as="targetPoint" />
          </mxGeometry>
        </mxCell>
        <mxCell id="osEmRyzHWU5hv7L7ng7F-17" value="&lt;font style=&quot;font-size: 8px;&quot;&gt;&amp;lt;&amp;lt;Include&amp;gt;&amp;gt;&lt;/font&gt;" style="html=1;verticalAlign=bottom;endArrow=open;dashed=1;endSize=8;curved=0;rounded=0;entryX=0.554;entryY=0.08;entryDx=0;entryDy=0;entryPerimeter=0;" parent="1" source="osEmRyzHWU5hv7L7ng7F-10" target="osEmRyzHWU5hv7L7ng7F-11" edge="1">
          <mxGeometry relative="1" as="geometry">
            <mxPoint x="350" y="190" as="sourcePoint" />
            <mxPoint x="315" y="280" as="targetPoint" />
          </mxGeometry>
        </mxCell>
        <mxCell id="osEmRyzHWU5hv7L7ng7F-18" value="&lt;font style=&quot;font-size: 8px;&quot;&gt;&amp;lt;&amp;lt;Extends&amp;gt;&amp;gt;&lt;/font&gt;" style="html=1;verticalAlign=bottom;endArrow=open;dashed=1;endSize=8;curved=0;rounded=0;" parent="1" source="osEmRyzHWU5hv7L7ng7F-12" target="osEmRyzHWU5hv7L7ng7F-11" edge="1">
          <mxGeometry x="-0.3333" relative="1" as="geometry">
            <mxPoint x="360" y="200" as="sourcePoint" />
            <mxPoint x="325" y="290" as="targetPoint" />
            <mxPoint as="offset" />
          </mxGeometry>
        </mxCell>
        <mxCell id="osEmRyzHWU5hv7L7ng7F-19" value="" style="rounded=0;whiteSpace=wrap;html=1;" parent="1" vertex="1">
          <mxGeometry x="90" y="600" width="340" height="540" as="geometry" />
        </mxCell>
        <mxCell id="osEmRyzHWU5hv7L7ng7F-20" value="&lt;font style=&quot;font-size: 9px;&quot;&gt;Usuario&lt;/font&gt;" style="shape=umlActor;verticalLabelPosition=bottom;verticalAlign=top;html=1;outlineConnect=0;" parent="1" vertex="1">
          <mxGeometry x="100" y="855" width="20" height="40" as="geometry" />
        </mxCell>
        <mxCell id="osEmRyzHWU5hv7L7ng7F-21" value="" style="rounded=0;whiteSpace=wrap;html=1;" parent="1" vertex="1">
          <mxGeometry x="130" y="630" width="270" height="470" as="geometry" />
        </mxCell>
        <mxCell id="osEmRyzHWU5hv7L7ng7F-22" value="&lt;font style=&quot;font-size: 9px;&quot;&gt;Ingresa datos del cliente&lt;/font&gt;" style="ellipse;whiteSpace=wrap;html=1;" parent="1" vertex="1">
          <mxGeometry x="150" y="640" width="80" height="50" as="geometry" />
        </mxCell>
        <mxCell id="osEmRyzHWU5hv7L7ng7F-23" value="&lt;font style=&quot;font-size: 9px;&quot;&gt;Validar correo electronico&lt;/font&gt;" style="ellipse;whiteSpace=wrap;html=1;" parent="1" vertex="1">
          <mxGeometry x="305" y="640" width="85" height="40" as="geometry" />
        </mxCell>
        <mxCell id="osEmRyzHWU5hv7L7ng7F-25" value="&lt;font style=&quot;font-size: 9px;&quot;&gt;Registrar Registra al cliente&lt;/font&gt;" style="ellipse;whiteSpace=wrap;html=1;" parent="1" vertex="1">
          <mxGeometry x="145" y="730" width="90" height="50" as="geometry" />
        </mxCell>
        <mxCell id="osEmRyzHWU5hv7L7ng7F-26" value="&lt;font style=&quot;font-size: 9px;&quot;&gt;Notificar Registro Exitoso&lt;/font&gt;" style="ellipse;whiteSpace=wrap;html=1;" parent="1" vertex="1">
          <mxGeometry x="310" y="735" width="80" height="40" as="geometry" />
        </mxCell>
        <mxCell id="osEmRyzHWU5hv7L7ng7F-28" value="" style="endArrow=none;html=1;rounded=0;exitX=0.5;exitY=0;exitDx=0;exitDy=0;exitPerimeter=0;entryX=0;entryY=0.5;entryDx=0;entryDy=0;" parent="1" source="osEmRyzHWU5hv7L7ng7F-20" target="osEmRyzHWU5hv7L7ng7F-22" edge="1">
          <mxGeometry width="50" height="50" relative="1" as="geometry">
            <mxPoint x="160" y="830" as="sourcePoint" />
            <mxPoint x="210" y="780" as="targetPoint" />
          </mxGeometry>
        </mxCell>
        <mxCell id="osEmRyzHWU5hv7L7ng7F-31" value="&lt;font style=&quot;font-size: 8px;&quot;&gt;&amp;lt;&amp;lt;Include&amp;gt;&amp;gt;&lt;/font&gt;" style="html=1;verticalAlign=bottom;endArrow=open;dashed=1;endSize=8;curved=0;rounded=0;" parent="1" source="osEmRyzHWU5hv7L7ng7F-22" target="osEmRyzHWU5hv7L7ng7F-25" edge="1">
          <mxGeometry relative="1" as="geometry">
            <mxPoint x="238.06788207622162" y="838.6074799540174" as="sourcePoint" />
            <mxPoint x="315" y="810" as="targetPoint" />
          </mxGeometry>
        </mxCell>
        <mxCell id="osEmRyzHWU5hv7L7ng7F-32" value="&lt;font style=&quot;font-size: 8px;&quot;&gt;&amp;lt;&amp;lt;Extends&amp;gt;&amp;gt;&lt;/font&gt;" style="html=1;verticalAlign=bottom;endArrow=open;dashed=1;endSize=8;curved=0;rounded=0;" parent="1" source="osEmRyzHWU5hv7L7ng7F-26" target="osEmRyzHWU5hv7L7ng7F-25" edge="1">
          <mxGeometry x="-0.3333" relative="1" as="geometry">
            <mxPoint x="360" y="730" as="sourcePoint" />
            <mxPoint x="325" y="820" as="targetPoint" />
            <mxPoint as="offset" />
          </mxGeometry>
        </mxCell>
        <mxCell id="osEmRyzHWU5hv7L7ng7F-34" value="&lt;font style=&quot;font-size: 8px;&quot;&gt;&amp;lt;&amp;lt;Extends&amp;gt;&amp;gt;&lt;/font&gt;" style="html=1;verticalAlign=bottom;endArrow=open;dashed=1;endSize=8;curved=0;rounded=0;" parent="1" source="osEmRyzHWU5hv7L7ng7F-23" target="osEmRyzHWU5hv7L7ng7F-22" edge="1">
          <mxGeometry x="-0.3196" y="15" relative="1" as="geometry">
            <mxPoint x="226" y="720" as="sourcePoint" />
            <mxPoint x="230" y="790" as="targetPoint" />
            <mxPoint as="offset" />
          </mxGeometry>
        </mxCell>
        <mxCell id="osEmRyzHWU5hv7L7ng7F-35" value="" style="rounded=0;whiteSpace=wrap;html=1;" parent="1" vertex="1">
          <mxGeometry x="480" y="70" width="340" height="480" as="geometry" />
        </mxCell>
        <mxCell id="osEmRyzHWU5hv7L7ng7F-36" value="&lt;font style=&quot;font-size: 9px;&quot;&gt;Usuario&lt;/font&gt;" style="shape=umlActor;verticalLabelPosition=bottom;verticalAlign=top;html=1;outlineConnect=0;" parent="1" vertex="1">
          <mxGeometry x="490" y="125" width="20" height="40" as="geometry" />
        </mxCell>
        <mxCell id="osEmRyzHWU5hv7L7ng7F-37" value="" style="rounded=0;whiteSpace=wrap;html=1;" parent="1" vertex="1">
          <mxGeometry x="520" y="100" width="270" height="420" as="geometry" />
        </mxCell>
        <mxCell id="osEmRyzHWU5hv7L7ng7F-38" value="&lt;font style=&quot;font-size: 9px;&quot;&gt;Verifica Disponibilidad&lt;/font&gt;" style="ellipse;whiteSpace=wrap;html=1;" parent="1" vertex="1">
          <mxGeometry x="570" y="125" width="80" height="40" as="geometry" />
        </mxCell>
        <mxCell id="osEmRyzHWU5hv7L7ng7F-40" value="&lt;font style=&quot;font-size: 9px;&quot;&gt;Seleccionar Fecha de Cita&lt;/font&gt;" style="ellipse;whiteSpace=wrap;html=1;" parent="1" vertex="1">
          <mxGeometry x="660" y="190" width="75" height="50" as="geometry" />
        </mxCell>
        <mxCell id="osEmRyzHWU5hv7L7ng7F-41" value="&lt;font style=&quot;font-size: 9px;&quot;&gt;Crear Cita&lt;/font&gt;" style="ellipse;whiteSpace=wrap;html=1;" parent="1" vertex="1">
          <mxGeometry x="665" y="280" width="65" height="40" as="geometry" />
        </mxCell>
        <mxCell id="osEmRyzHWU5hv7L7ng7F-42" value="&lt;font style=&quot;font-size: 9px;&quot;&gt;Notificar Registro Exitoso&lt;/font&gt;" style="ellipse;whiteSpace=wrap;html=1;" parent="1" vertex="1">
          <mxGeometry x="562.5" y="370" width="80" height="50" as="geometry" />
        </mxCell>
        <mxCell id="osEmRyzHWU5hv7L7ng7F-44" value="" style="endArrow=none;html=1;rounded=0;exitX=0.5;exitY=0.5;exitDx=0;exitDy=0;exitPerimeter=0;entryX=0;entryY=0.5;entryDx=0;entryDy=0;" parent="1" source="osEmRyzHWU5hv7L7ng7F-36" target="osEmRyzHWU5hv7L7ng7F-38" edge="1">
          <mxGeometry width="50" height="50" relative="1" as="geometry">
            <mxPoint x="550" y="300" as="sourcePoint" />
            <mxPoint x="600" y="250" as="targetPoint" />
          </mxGeometry>
        </mxCell>
        <mxCell id="osEmRyzHWU5hv7L7ng7F-46" value="&lt;font style=&quot;font-size: 8px;&quot;&gt;&amp;lt;&amp;lt;Include&amp;gt;&amp;gt;&lt;/font&gt;" style="html=1;verticalAlign=bottom;endArrow=open;dashed=1;endSize=8;curved=0;rounded=0;entryX=0.5;entryY=0;entryDx=0;entryDy=0;" parent="1" source="osEmRyzHWU5hv7L7ng7F-38" target="osEmRyzHWU5hv7L7ng7F-40" edge="1">
          <mxGeometry relative="1" as="geometry">
            <mxPoint x="730" y="180" as="sourcePoint" />
            <mxPoint x="695" y="270" as="targetPoint" />
          </mxGeometry>
        </mxCell>
        <mxCell id="osEmRyzHWU5hv7L7ng7F-47" value="&lt;font style=&quot;font-size: 8px;&quot;&gt;&amp;lt;&amp;lt;Include&amp;gt;&amp;gt;&lt;/font&gt;" style="html=1;verticalAlign=bottom;endArrow=open;dashed=1;endSize=8;curved=0;rounded=0;entryX=0.554;entryY=0.08;entryDx=0;entryDy=0;entryPerimeter=0;" parent="1" source="osEmRyzHWU5hv7L7ng7F-40" target="osEmRyzHWU5hv7L7ng7F-41" edge="1">
          <mxGeometry relative="1" as="geometry">
            <mxPoint x="740" y="190" as="sourcePoint" />
            <mxPoint x="705" y="280" as="targetPoint" />
          </mxGeometry>
        </mxCell>
        <mxCell id="osEmRyzHWU5hv7L7ng7F-48" value="&lt;font style=&quot;font-size: 8px;&quot;&gt;&amp;lt;&amp;lt;Extends&amp;gt;&amp;gt;&lt;/font&gt;" style="html=1;verticalAlign=bottom;endArrow=open;dashed=1;endSize=8;curved=0;rounded=0;" parent="1" source="osEmRyzHWU5hv7L7ng7F-42" target="osEmRyzHWU5hv7L7ng7F-41" edge="1">
          <mxGeometry x="-0.3333" relative="1" as="geometry">
            <mxPoint x="750" y="200" as="sourcePoint" />
            <mxPoint x="715" y="290" as="targetPoint" />
            <mxPoint as="offset" />
          </mxGeometry>
        </mxCell>
        <mxCell id="osEmRyzHWU5hv7L7ng7F-49" value="&lt;font style=&quot;font-size: 9px;&quot;&gt;Buscar Cliente&lt;/font&gt;" style="ellipse;whiteSpace=wrap;html=1;" parent="1" vertex="1">
          <mxGeometry x="160" y="790" width="72.5" height="30" as="geometry" />
        </mxCell>
        <mxCell id="osEmRyzHWU5hv7L7ng7F-50" value="" style="endArrow=none;html=1;rounded=0;exitX=0.5;exitY=0.5;exitDx=0;exitDy=0;exitPerimeter=0;" parent="1" source="osEmRyzHWU5hv7L7ng7F-20" target="osEmRyzHWU5hv7L7ng7F-49" edge="1">
          <mxGeometry width="50" height="50" relative="1" as="geometry">
            <mxPoint x="120" y="780" as="sourcePoint" />
            <mxPoint x="160" y="675" as="targetPoint" />
          </mxGeometry>
        </mxCell>
        <mxCell id="osEmRyzHWU5hv7L7ng7F-51" value="&lt;font style=&quot;font-size: 9px;&quot;&gt;Ingresa datos para actualizar cliente&lt;/font&gt;" style="ellipse;whiteSpace=wrap;html=1;" parent="1" vertex="1">
          <mxGeometry x="297.5" y="780" width="90" height="50" as="geometry" />
        </mxCell>
        <mxCell id="osEmRyzHWU5hv7L7ng7F-52" value="&lt;font style=&quot;font-size: 9px;&quot;&gt;Valida datos que sean correctos&lt;/font&gt;" style="ellipse;whiteSpace=wrap;html=1;" parent="1" vertex="1">
          <mxGeometry x="297.5" y="870" width="90" height="50" as="geometry" />
        </mxCell>
        <mxCell id="osEmRyzHWU5hv7L7ng7F-53" value="&lt;font style=&quot;font-size: 9px;&quot;&gt;Notificar actualizacion Exitosa&lt;/font&gt;" style="ellipse;whiteSpace=wrap;html=1;" parent="1" vertex="1">
          <mxGeometry x="297.5" y="930" width="80" height="40" as="geometry" />
        </mxCell>
        <mxCell id="osEmRyzHWU5hv7L7ng7F-54" value="&lt;font style=&quot;font-size: 8px;&quot;&gt;&amp;lt;&amp;lt;Extends&amp;gt;&amp;gt;&lt;/font&gt;" style="html=1;verticalAlign=bottom;endArrow=open;dashed=1;endSize=8;curved=0;rounded=0;" parent="1" source="osEmRyzHWU5hv7L7ng7F-53" target="osEmRyzHWU5hv7L7ng7F-56" edge="1">
          <mxGeometry x="-0.3333" relative="1" as="geometry">
            <mxPoint x="357.5" y="910" as="sourcePoint" />
            <mxPoint x="322.5" y="1000" as="targetPoint" />
            <mxPoint as="offset" />
          </mxGeometry>
        </mxCell>
        <mxCell id="osEmRyzHWU5hv7L7ng7F-55" value="&lt;font style=&quot;font-size: 8px;&quot;&gt;&amp;lt;&amp;lt;Include&amp;gt;&amp;gt;&lt;/font&gt;" style="html=1;verticalAlign=bottom;endArrow=open;dashed=1;endSize=8;curved=0;rounded=0;" parent="1" source="osEmRyzHWU5hv7L7ng7F-49" target="osEmRyzHWU5hv7L7ng7F-51" edge="1">
          <mxGeometry relative="1" as="geometry">
            <mxPoint x="200" y="700" as="sourcePoint" />
            <mxPoint x="200" y="740" as="targetPoint" />
          </mxGeometry>
        </mxCell>
        <mxCell id="osEmRyzHWU5hv7L7ng7F-56" value="&lt;font style=&quot;font-size: 9px;&quot;&gt;Actualiza datos&amp;nbsp;&lt;/font&gt;" style="ellipse;whiteSpace=wrap;html=1;" parent="1" vertex="1">
          <mxGeometry x="167.5" y="870" width="67.5" height="40" as="geometry" />
        </mxCell>
        <mxCell id="osEmRyzHWU5hv7L7ng7F-57" value="&lt;font style=&quot;font-size: 8px;&quot;&gt;&amp;lt;&amp;lt;Extends&amp;gt;&amp;gt;&lt;/font&gt;" style="html=1;verticalAlign=bottom;endArrow=open;dashed=1;endSize=8;curved=0;rounded=0;" parent="1" source="osEmRyzHWU5hv7L7ng7F-52" target="osEmRyzHWU5hv7L7ng7F-51" edge="1">
          <mxGeometry x="-0.3333" relative="1" as="geometry">
            <mxPoint x="350" y="990" as="sourcePoint" />
            <mxPoint x="350" y="950" as="targetPoint" />
            <mxPoint as="offset" />
          </mxGeometry>
        </mxCell>
        <mxCell id="osEmRyzHWU5hv7L7ng7F-58" value="&lt;font style=&quot;font-size: 8px;&quot;&gt;&amp;lt;&amp;lt;Include&amp;gt;&amp;gt;&lt;/font&gt;" style="html=1;verticalAlign=bottom;endArrow=open;dashed=1;endSize=8;curved=0;rounded=0;" parent="1" source="osEmRyzHWU5hv7L7ng7F-56" target="osEmRyzHWU5hv7L7ng7F-52" edge="1">
          <mxGeometry relative="1" as="geometry">
            <mxPoint x="253" y="840" as="sourcePoint" />
            <mxPoint x="300" y="840" as="targetPoint" />
          </mxGeometry>
        </mxCell>
        <mxCell id="osEmRyzHWU5hv7L7ng7F-59" value="&lt;font style=&quot;font-size: 9px;&quot;&gt;Buscar Cliente&lt;/font&gt;" style="ellipse;whiteSpace=wrap;html=1;" parent="1" vertex="1">
          <mxGeometry x="160" y="950" width="68.75" height="30" as="geometry" />
        </mxCell>
        <mxCell id="osEmRyzHWU5hv7L7ng7F-60" value="" style="endArrow=none;html=1;rounded=0;exitX=0.5;exitY=0.5;exitDx=0;exitDy=0;exitPerimeter=0;" parent="1" source="osEmRyzHWU5hv7L7ng7F-20" target="osEmRyzHWU5hv7L7ng7F-59" edge="1">
          <mxGeometry width="50" height="50" relative="1" as="geometry">
            <mxPoint x="120" y="885" as="sourcePoint" />
            <mxPoint x="190" y="828" as="targetPoint" />
          </mxGeometry>
        </mxCell>
        <mxCell id="osEmRyzHWU5hv7L7ng7F-61" value="&lt;font style=&quot;font-size: 9px;&quot;&gt;Eliminar Cliente&lt;/font&gt;" style="ellipse;whiteSpace=wrap;html=1;" parent="1" vertex="1">
          <mxGeometry x="172.5" y="1030" width="60" height="30" as="geometry" />
        </mxCell>
        <mxCell id="osEmRyzHWU5hv7L7ng7F-62" value="&lt;font style=&quot;font-size: 9px;&quot;&gt;Notificar actualizacion Exitosa&lt;/font&gt;" style="ellipse;whiteSpace=wrap;html=1;" parent="1" vertex="1">
          <mxGeometry x="302.5" y="1025" width="80" height="40" as="geometry" />
        </mxCell>
        <mxCell id="osEmRyzHWU5hv7L7ng7F-63" value="&lt;font style=&quot;font-size: 8px;&quot;&gt;&amp;lt;&amp;lt;Extends&amp;gt;&amp;gt;&lt;/font&gt;" style="html=1;verticalAlign=bottom;endArrow=open;dashed=1;endSize=8;curved=0;rounded=0;" parent="1" source="osEmRyzHWU5hv7L7ng7F-62" target="osEmRyzHWU5hv7L7ng7F-61" edge="1">
          <mxGeometry x="-0.3333" relative="1" as="geometry">
            <mxPoint x="318" y="947" as="sourcePoint" />
            <mxPoint x="238" y="912" as="targetPoint" />
            <mxPoint as="offset" />
          </mxGeometry>
        </mxCell>
        <mxCell id="osEmRyzHWU5hv7L7ng7F-64" value="&lt;font style=&quot;font-size: 8px;&quot;&gt;&amp;lt;&amp;lt;Include&amp;gt;&amp;gt;&lt;/font&gt;" style="html=1;verticalAlign=bottom;endArrow=open;dashed=1;endSize=8;curved=0;rounded=0;" parent="1" source="osEmRyzHWU5hv7L7ng7F-59" target="osEmRyzHWU5hv7L7ng7F-61" edge="1">
          <mxGeometry relative="1" as="geometry">
            <mxPoint x="217" y="1010" as="sourcePoint" />
            <mxPoint x="280" y="1012" as="targetPoint" />
          </mxGeometry>
        </mxCell>
        <mxCell id="osEmRyzHWU5hv7L7ng7F-65" value="&lt;font style=&quot;font-size: 9px;&quot;&gt;Cancelar Cita&lt;/font&gt;" style="ellipse;whiteSpace=wrap;html=1;" parent="1" vertex="1">
          <mxGeometry x="705" y="360" width="65" height="40" as="geometry" />
        </mxCell>
        <mxCell id="osEmRyzHWU5hv7L7ng7F-66" value="&lt;font style=&quot;font-size: 9px;&quot;&gt;Notificar Registro Exitoso&lt;/font&gt;" style="ellipse;whiteSpace=wrap;html=1;" parent="1" vertex="1">
          <mxGeometry x="697.5" y="450" width="80" height="50" as="geometry" />
        </mxCell>
        <mxCell id="osEmRyzHWU5hv7L7ng7F-67" value="&lt;font style=&quot;font-size: 8px;&quot;&gt;&amp;lt;&amp;lt;Extends&amp;gt;&amp;gt;&lt;/font&gt;" style="html=1;verticalAlign=bottom;endArrow=open;dashed=1;endSize=8;curved=0;rounded=0;" parent="1" source="osEmRyzHWU5hv7L7ng7F-66" target="osEmRyzHWU5hv7L7ng7F-65" edge="1">
          <mxGeometry x="-0.3333" relative="1" as="geometry">
            <mxPoint x="857.5" y="240" as="sourcePoint" />
            <mxPoint x="822.5" y="330" as="targetPoint" />
            <mxPoint as="offset" />
          </mxGeometry>
        </mxCell>
        <mxCell id="osEmRyzHWU5hv7L7ng7F-69" value="&lt;font style=&quot;font-size: 8px;&quot;&gt;&amp;lt;&amp;lt;Extends&amp;gt;&amp;gt;&lt;/font&gt;" style="html=1;verticalAlign=bottom;endArrow=open;dashed=1;endSize=8;curved=0;rounded=0;" parent="1" source="osEmRyzHWU5hv7L7ng7F-65" target="osEmRyzHWU5hv7L7ng7F-41" edge="1">
          <mxGeometry x="-0.3333" relative="1" as="geometry">
            <mxPoint x="700" y="430" as="sourcePoint" />
            <mxPoint x="700" y="370" as="targetPoint" />
            <mxPoint as="offset" />
          </mxGeometry>
        </mxCell>
        <mxCell id="osEmRyzHWU5hv7L7ng7F-71" value="" style="endArrow=none;html=1;rounded=0;exitX=0.5;exitY=0.5;exitDx=0;exitDy=0;exitPerimeter=0;" parent="1" source="osEmRyzHWU5hv7L7ng7F-36" target="osEmRyzHWU5hv7L7ng7F-72" edge="1">
          <mxGeometry width="50" height="50" relative="1" as="geometry">
            <mxPoint x="510" y="155" as="sourcePoint" />
            <mxPoint x="580" y="155" as="targetPoint" />
          </mxGeometry>
        </mxCell>
        <mxCell id="osEmRyzHWU5hv7L7ng7F-72" value="&lt;font size=&quot;1&quot;&gt;Consultar Historial de Citas&lt;/font&gt;" style="ellipse;whiteSpace=wrap;html=1;" parent="1" vertex="1">
          <mxGeometry x="550" y="250" width="92.5" height="50" as="geometry" />
        </mxCell>
        <mxCell id="osEmRyzHWU5hv7L7ng7F-73" value="" style="rounded=0;whiteSpace=wrap;html=1;" parent="1" vertex="1">
          <mxGeometry x="480" y="600" width="340" height="340" as="geometry" />
        </mxCell>
        <mxCell id="osEmRyzHWU5hv7L7ng7F-74" value="&lt;font style=&quot;font-size: 9px;&quot;&gt;Usuario&lt;/font&gt;" style="shape=umlActor;verticalLabelPosition=bottom;verticalAlign=top;html=1;outlineConnect=0;" parent="1" vertex="1">
          <mxGeometry x="490" y="655" width="20" height="40" as="geometry" />
        </mxCell>
        <mxCell id="osEmRyzHWU5hv7L7ng7F-75" value="" style="rounded=0;whiteSpace=wrap;html=1;" parent="1" vertex="1">
          <mxGeometry x="520" y="630" width="270" height="280" as="geometry" />
        </mxCell>
        <mxCell id="osEmRyzHWU5hv7L7ng7F-76" value="&lt;font style=&quot;font-size: 9px;&quot;&gt;Buscar Mascota&lt;/font&gt;" style="ellipse;whiteSpace=wrap;html=1;" parent="1" vertex="1">
          <mxGeometry x="570" y="655" width="80" height="40" as="geometry" />
        </mxCell>
        <mxCell id="osEmRyzHWU5hv7L7ng7F-77" value="&lt;font style=&quot;font-size: 9px;&quot;&gt;Registrar Vacuna&lt;/font&gt;" style="ellipse;whiteSpace=wrap;html=1;" parent="1" vertex="1">
          <mxGeometry x="680" y="720" width="75" height="50" as="geometry" />
        </mxCell>
        <mxCell id="osEmRyzHWU5hv7L7ng7F-79" value="&lt;font style=&quot;font-size: 9px;&quot;&gt;Actualizar Estado de VacunaciÃ³n&lt;/font&gt;" style="ellipse;whiteSpace=wrap;html=1;" parent="1" vertex="1">
          <mxGeometry x="677.5" y="840" width="80" height="50" as="geometry" />
        </mxCell>
        <mxCell id="osEmRyzHWU5hv7L7ng7F-80" value="" style="endArrow=none;html=1;rounded=0;exitX=0.5;exitY=0.5;exitDx=0;exitDy=0;exitPerimeter=0;entryX=0;entryY=0.5;entryDx=0;entryDy=0;" parent="1" source="osEmRyzHWU5hv7L7ng7F-74" target="osEmRyzHWU5hv7L7ng7F-76" edge="1">
          <mxGeometry width="50" height="50" relative="1" as="geometry">
            <mxPoint x="550" y="830" as="sourcePoint" />
            <mxPoint x="600" y="780" as="targetPoint" />
          </mxGeometry>
        </mxCell>
        <mxCell id="osEmRyzHWU5hv7L7ng7F-81" value="&lt;font style=&quot;font-size: 8px;&quot;&gt;&amp;lt;&amp;lt;Include&amp;gt;&amp;gt;&lt;/font&gt;" style="html=1;verticalAlign=bottom;endArrow=open;dashed=1;endSize=8;curved=0;rounded=0;entryX=0.5;entryY=0;entryDx=0;entryDy=0;" parent="1" source="osEmRyzHWU5hv7L7ng7F-76" target="osEmRyzHWU5hv7L7ng7F-77" edge="1">
          <mxGeometry relative="1" as="geometry">
            <mxPoint x="730" y="710" as="sourcePoint" />
            <mxPoint x="695" y="800" as="targetPoint" />
          </mxGeometry>
        </mxCell>
        <mxCell id="osEmRyzHWU5hv7L7ng7F-83" value="&lt;font style=&quot;font-size: 8px;&quot;&gt;&amp;lt;&amp;lt;Extends&amp;gt;&amp;gt;&lt;/font&gt;" style="html=1;verticalAlign=bottom;endArrow=open;dashed=1;endSize=8;curved=0;rounded=0;" parent="1" source="osEmRyzHWU5hv7L7ng7F-79" target="osEmRyzHWU5hv7L7ng7F-77" edge="1">
          <mxGeometry x="-0.3333" relative="1" as="geometry">
            <mxPoint x="750" y="730" as="sourcePoint" />
            <mxPoint x="680.4668336659217" y="847.033166334078" as="targetPoint" />
            <mxPoint as="offset" />
          </mxGeometry>
        </mxCell>
        <mxCell id="osEmRyzHWU5hv7L7ng7F-88" value="" style="endArrow=none;html=1;rounded=0;exitX=0.5;exitY=0.5;exitDx=0;exitDy=0;exitPerimeter=0;" parent="1" source="osEmRyzHWU5hv7L7ng7F-74" target="osEmRyzHWU5hv7L7ng7F-89" edge="1">
          <mxGeometry width="50" height="50" relative="1" as="geometry">
            <mxPoint x="510" y="685" as="sourcePoint" />
            <mxPoint x="580" y="685" as="targetPoint" />
          </mxGeometry>
        </mxCell>
        <mxCell id="osEmRyzHWU5hv7L7ng7F-89" value="&lt;font size=&quot;1&quot;&gt;Consultar Historial de Vacunacion&lt;/font&gt;" style="ellipse;whiteSpace=wrap;html=1;" parent="1" vertex="1">
          <mxGeometry x="550" y="780" width="92.5" height="50" as="geometry" />
        </mxCell>
        <mxCell id="osEmRyzHWU5hv7L7ng7F-101" value="" style="rounded=0;whiteSpace=wrap;html=1;" parent="1" vertex="1">
          <mxGeometry x="870" y="600" width="340" height="340" as="geometry" />
        </mxCell>
        <mxCell id="osEmRyzHWU5hv7L7ng7F-102" value="&lt;font style=&quot;font-size: 9px;&quot;&gt;Usuario&lt;/font&gt;" style="shape=umlActor;verticalLabelPosition=bottom;verticalAlign=top;html=1;outlineConnect=0;" parent="1" vertex="1">
          <mxGeometry x="880" y="655" width="20" height="40" as="geometry" />
        </mxCell>
        <mxCell id="osEmRyzHWU5hv7L7ng7F-103" value="" style="rounded=0;whiteSpace=wrap;html=1;" parent="1" vertex="1">
          <mxGeometry x="910" y="630" width="270" height="280" as="geometry" />
        </mxCell>
        <mxCell id="osEmRyzHWU5hv7L7ng7F-104" value="&lt;font style=&quot;font-size: 9px;&quot;&gt;Seleccionar&amp;nbsp; DueÃ±o&lt;/font&gt;" style="ellipse;whiteSpace=wrap;html=1;" parent="1" vertex="1">
          <mxGeometry x="950" y="650" width="90" height="50" as="geometry" />
        </mxCell>
        <mxCell id="osEmRyzHWU5hv7L7ng7F-105" value="&lt;font style=&quot;font-size: 9px;&quot;&gt;Seleccionar las mascotas&amp;nbsp;&lt;/font&gt;" style="ellipse;whiteSpace=wrap;html=1;" parent="1" vertex="1">
          <mxGeometry x="960" y="745" width="75" height="50" as="geometry" />
        </mxCell>
        <mxCell id="osEmRyzHWU5hv7L7ng7F-106" value="&lt;font size=&quot;1&quot;&gt;Seleccionar rango de fecha&amp;nbsp;&lt;/font&gt;" style="ellipse;whiteSpace=wrap;html=1;" parent="1" vertex="1">
          <mxGeometry x="960" y="840" width="80" height="50" as="geometry" />
        </mxCell>
        <mxCell id="osEmRyzHWU5hv7L7ng7F-107" value="" style="endArrow=none;html=1;rounded=0;exitX=0.5;exitY=0.5;exitDx=0;exitDy=0;exitPerimeter=0;entryX=0;entryY=0.5;entryDx=0;entryDy=0;" parent="1" source="osEmRyzHWU5hv7L7ng7F-102" target="osEmRyzHWU5hv7L7ng7F-104" edge="1">
          <mxGeometry width="50" height="50" relative="1" as="geometry">
            <mxPoint x="940" y="830" as="sourcePoint" />
            <mxPoint x="990" y="780" as="targetPoint" />
          </mxGeometry>
        </mxCell>
        <mxCell id="osEmRyzHWU5hv7L7ng7F-108" value="&lt;font style=&quot;font-size: 8px;&quot;&gt;&amp;lt;&amp;lt;Include&amp;gt;&amp;gt;&lt;/font&gt;" style="html=1;verticalAlign=bottom;endArrow=open;dashed=1;endSize=8;curved=0;rounded=0;entryX=0.5;entryY=0;entryDx=0;entryDy=0;" parent="1" source="osEmRyzHWU5hv7L7ng7F-104" target="osEmRyzHWU5hv7L7ng7F-105" edge="1">
          <mxGeometry relative="1" as="geometry">
            <mxPoint x="1120" y="710" as="sourcePoint" />
            <mxPoint x="1085" y="800" as="targetPoint" />
          </mxGeometry>
        </mxCell>
        <mxCell id="1OTcukU2OdfDRf5bucuh-1" value="&lt;font style=&quot;font-size: 8px;&quot;&gt;&amp;lt;&amp;lt;Include&amp;gt;&amp;gt;&lt;/font&gt;" style="html=1;verticalAlign=bottom;endArrow=open;dashed=1;endSize=8;curved=0;rounded=0;" edge="1" parent="1" source="osEmRyzHWU5hv7L7ng7F-105" target="osEmRyzHWU5hv7L7ng7F-106">
          <mxGeometry relative="1" as="geometry">
            <mxPoint x="1005" y="710" as="sourcePoint" />
            <mxPoint x="1005" y="755" as="targetPoint" />
          </mxGeometry>
        </mxCell>
        <mxCell id="1OTcukU2OdfDRf5bucuh-2" value="&lt;font size=&quot;1&quot;&gt;Generar reporte en PDF&lt;/font&gt;" style="ellipse;whiteSpace=wrap;html=1;" vertex="1" parent="1">
          <mxGeometry x="1080" y="840" width="80" height="50" as="geometry" />
        </mxCell>
        <mxCell id="1OTcukU2OdfDRf5bucuh-3" value="&lt;font style=&quot;font-size: 8px;&quot;&gt;&amp;lt;&amp;lt;Extends&amp;gt;&amp;gt;&lt;/font&gt;" style="html=1;verticalAlign=bottom;endArrow=open;dashed=1;endSize=8;curved=0;rounded=0;" edge="1" parent="1" source="1OTcukU2OdfDRf5bucuh-2" target="osEmRyzHWU5hv7L7ng7F-106">
          <mxGeometry x="-0.3333" relative="1" as="geometry">
            <mxPoint x="728" y="850" as="sourcePoint" />
            <mxPoint x="728" y="780" as="targetPoint" />
            <mxPoint as="offset" />
          </mxGeometry>
        </mxCell>
      </root>
    </mxGraphModel>
  </diagram>
</mxfile>
